<svg xmlns="http://www.w3.org/2000/svg" viewBox="0 0 128 128">
  <defs>
    <linearGradient id="g" x1="0" x2="1" y1="0" y2="1">
      <stop offset="0%" stop-color="#38bdf8"/>
      <stop offset="100%" stop-color="#0ea5e9"/>
    </linearGradient>
  </defs>
  <path fill="#0b1220" d="M0 0h128v128H0z"/>
  <path fill="url(#g)" d="M64 10l34 12v34c0 24-16 46-34 54-18-8-34-30-34-54V22l34-12z"/>
  <path fill="none" stroke="#67e8f9" stroke-opacity=".6" stroke-width="2" d="M64 18l27 9v29c0 20-13 38-27 44-14-6-27-24-27-44V27l27-9z"/>
  <circle cx="64" cy="54" r="14" fill="#0b1220" opacity=".7"/>
  <path fill="#67e8f9" d="M60 50h8v16h-8zM56 54h16v8H56z"/>
</svg>

